<svg xmlns="http://www.w3.org/2000/svg" fill="currentColor" viewBox="0 0 300 81.23"><path d="m38.4 64.21-.21.21c-3.45 3.51-7.44 5.37-11.55 5.37-8.58 0-14.8-6.43-14.8-15.31 0-8.87 6.22-15.32 14.8-15.32 4.11 0 8.1 1.87 11.55 5.4l.21.2 5.52-6.66-.15-.19c-4.59-5.42-10.1-8.06-16.86-8.06-6.8 0-13 2.29-17.48 6.41C4.57 40.72 2 47.02 2 54.48S4.57 68.24 9.43 72.7c4.47 4.14 10.68 6.41 17.48 6.41 6.77 0 12.27-2.64 16.86-8.06l.15-.17zm11.1 14h9.74V30.62H49.5zm47.93-10.35q-3.91 2.38-7.2 2.38c-3.15 0-4.57-1.66-4.57-5.36V39.63h9.93v-8.96h-9.93v-14.8l-9.55 5.1v9.7h-8.25v8.96h8.25v26.86c0 7.32 4.33 12.32 10.8 12.45 4.4.08 7.04-1.22 8.65-2.18l.1-.07L98 67.5zm8.07 10.35h9.76V30.62h-9.76zm165.23-65.69v45.4l3.04-4.74c0 .03 13.64-19.73 15.39-22.25h6.08c-1.3 1.74-12.02 16.5-12.02 16.5S297.19 76.55 298 78.21h-5.97l-12.34-26.1-8.96 12.57V78.2h-5.56V15.7zm-45.7 24.04a14.8 14.8 0 0 1 12.62-6.65c10.5 0 16.05 6.69 16.05 19.35V78.2h-5.57V50.46c0-10.77-3.74-15.77-11.85-15.77-7.75 0-12.38 5.9-12.38 15.77V78.2h-5.56V30.93h5.56v7.33zm-34.2-6.65c10.8 0 16.04 4.93 16.04 15.1v33.2h-5.56v-6.9l-1.08 1.2c-4.1 4.52-8.8 6.72-14.4 6.72-4.38 0-14.58-1.45-14.58-14.9 0-11.01 9.08-14.92 17.59-14.92 4.27 0 8.49.99 11.55 2.7l.92.51v-6.79c0-7.52-3.68-11.34-10.94-11.34-4.48 0-8.52 1.13-12.67 3.47-.36-.84-1.65-3.68-2-4.5a33 33 0 0 1 15.13-3.55M176.7 63.86c0 7.07 3.66 10.96 10.32 10.96 5.66 0 10.7-2.67 14.18-7.54l.1-.17V56.75l-.3-.18c-3.55-2.03-7.19-2.84-12.54-2.84-7.35 0-11.76 3.78-11.76 10.13m-42.96-51.34v25.3l1.08-1.19c4.1-4.52 8.63-6.72 13.84-6.72 10.44 0 16.43 8.7 16.43 23.87 0 15.46-6.8 25.45-17.34 25.45-5.13 0-9.24-1.99-12.93-6.25l-1.08-1.27v6.5h-5.55V15.7zm.13 29.41-.13.18v24.61l.1.15c3.07 4.75 8.07 7.6 13.39 7.6 8.22 0 12.38-6.93 12.38-20.6 0-12.2-4.61-19.18-12.66-19.18-4.88 0-9.28 2.43-13.08 7.24"/><path d="M121.1 22.18A48 48 0 0 0 82.26 2a48 48 0 0 0-38.8 20.18l-.46.65h11.24l.13-.13c7.64-7.9 17.63-12.07 27.9-12.07s20.25 4.17 27.9 12.07l.13.13h11.23z"/></svg>