<svg xmlns="http://www.w3.org/2000/svg" fill="currentColor" viewBox="0 0 4047 488"><path fill-rule="evenodd" d="m237.99 67.66-7.13 10.66-4.8 9.59-4.79 9.59-3.74 9.5-3.74 9.5-2.86 11-2.87 11-1.45 9.5-1.45 9.5-.61 9-.62 9 1.03 12.32 1.03 12.33 2.06 10.17 2.06 10.18 4.1 12.34 4.09 12.35 6.61 13.15 6.61 13.16 6.79 10.25 6.78 10.25h1.98l7.05-10.75 7.05-10.75 6.85-14 6.84-14 3.6-10.95 3.58-10.95 1.96-9.55 1.97-9.55 1.18-13.25 1.19-13.25-1.19-13.25-1.18-13.25-2.04-9.9-2.03-9.89-3.04-9.6-3.05-9.61-4.33-10-4.33-10-4.82-8.7-4.83-8.7-5.26-7.55-5.26-7.55h-1.87zM116.52 187.97l-.6.97 2 12.28 2 12.28 2.5 8.61 2.5 8.62 3.1 7.88 3.12 7.89 4.06 7.5 4.06 7.5 4.56 6.44 4.56 6.45 5.82 6.76 5.83 6.77 8.23 6.91 8.24 6.9 7.5 5.01 7.5 5 9.1 4.56 9.08 4.56 9.91 3.43 9.91 3.43 5.25 1.24 5.25 1.24V475h11.99l.25-72.25.26-72.25 4.5-1.29 4.5-1.29 9.5-3.06 9.5-3.06 11.7-5.95 11.69-5.95 8.8-6.2 8.81-6.2 10.55-10.5 10.54-10.5 6.67-10.04 6.67-10.05 4.44-9.45 4.45-9.46 3.08-9.5 3.08-9.5 1.9-9.5 1.92-9.5.7-6.25.7-6.25h-1.37l-7.84 2-7.85 2-8.08 3.42-8.09 3.4-8.09 4.75-8.08 4.74-8.65 6.71-8.65 6.7-9.59 9.92-9.59 9.92-7 9.47-7 9.47-3.89 6-3.9 6-10.01 20-10.02 20h-4.71l-1.9-3.5-1.9-3.5-5.4-11.5-5.42-11.5-6.43-10.68-6.43-10.67-5.9-8.32-5.91-8.33-14.5-14.59-14.5-14.58-10.04-6.63-10.05-6.63-9.49-4.5-9.49-4.5-9.47-2.53-9.46-2.53h-.2l-.18-.01zm-66.05 128-6.03.86L38 318.5l-6.45 1.67-1.71.92-1.72.92 1.56 4.56 1.55 4.56 7.31 14.69 7.31 14.68 2.98 4.64 2.98 4.63 11.37-5.7 11.38-5.7 8.47-2.67 8.47-2.67 7.5-1.68 7.5-1.69h36l35.5 6.15 35.5 6.15 7.83 1.39 7.83 1.39.47-1.23.48-1.23-.3-5.83-.31-5.83-11-2.2-11-2.19-14-3.56-14-3.57-35.5-9.57-35.5-9.57-11-2.05-11-2.06-15-.36-15-.37zM451 335.16l-7.5 2.97-15 4.35-15 4.35-15 3.05-15 3.06-11.5 1.47-11.5 1.48-15 1.2-15 1.2-28-.66-28-.65-5.75-.61-5.75-.62v14.12l1.75.51 1.75.52 10.5 1.98 10.5 1.98 13.5 2.02 13.5 2.02 13.5 1.53 13.5 1.53 20.7 1.06 20.7 1.06 16.72-1.06 16.7-1.05 7.1-1.03 7.08-1.02 2.28-.96 2.29-.95 6-9.25 6-9.26 5.84-11.5 5.85-11.5.69-2.25.69-2.25-.82.1-.82.09zm-295 33.87-13.5.7-8 1.22-8 1.21-10 2.35-10 2.35-9 3.16-9 3.16-9.25 4.5-9.25 4.5v3.04l13.25 13.26 13.25 13.26 2.7 1.7 2.69 1.71 7.37-4.47 7.37-4.48 10.35-5.19 10.35-5.2 10-3.89 10-3.9 10.58-2.94 10.59-2.95 8-1.56 8-1.57 9.5-.98 9.5-.98 8.25-.02L230 387v-11.87l-1.75-.52-1.75-.52-8.5-1.5-8.5-1.52-10-.99-10-.99-10-.38-10-.38zm107.2 18.15.3 4.19 13 3.72 13 3.72 11.5 4.22 11.5 4.23L329 414l16.5 6.76 15.7 6.62 15.7 6.61 1.3-.02 1.3-.03 8.98-7.22 8.98-7.23 9.52-9.26 9.52-9.26-5.5.76-5.5.76-22.5-.09-22.5-.08-17.79-2.68-17.78-2.68-14.72-3.05-14.71-3.05-15.7-3.93-15.71-3.94h-1.2zm-51.41 20.35-9.73 1.33-8.28 1.67-8.27 1.68-11.9 3.9-11.91 3.9-8.44 4.48-8.45 4.5-6.28 5-6.28 4.99-1.64 2.5-1.65 2.52 3.28 2 3.27 2.01 9.5 4.64 9.5 4.64 10.5 3.94 10.5 3.95 13 3.33 13 3.34 10.63 1.57 10.63 1.58H230v-69l-4.25.1-4.25.1zm51.22 34.1v33.65l7.75-.69 7.75-.68 12-2.41 12-2.42 9-2.6 9-2.62 10.25-4 10.25-4.01v-1.41l-5.55-6.7-5.55-6.68-8.2-6.57-8.2-6.57-7.53-4.43-7.53-4.42-7.47-3.1-7.47-3.09-9.36-2.44-9.36-2.44H263z"/><path fill-rule="evenodd" d="m218.76 2.02-7.74.88-9.75 1.67-9.76 1.66-12.5 3.42-12.51 3.43-11.5 4.56-11.5 4.55-11.5 5.98-11.5 5.98-11.34 7.53-11.35 7.54-9.15 7.6-9.16 7.6-7.54 7.54-7.54 7.54-7.89 9.5-7.89 9.5-7.94 12-7.94 12-7.35 15-7.35 15-4.99 15-4.98 15-2.5 12.5-2.48 12.5-1.05 9.71L1 226.92v35.98l1.54 11.8 1.55 11.8 2.05 10 2.05 10 4.92 14.98 4.92 14.97 6.89 14.03 6.89 14.02 5.66 9 5.67 9 7.18 9.5 7.18 9.5 12 12.36 12 12.37 9 7.23 9 7.22 9 6.04 9 6.03 9 4.97 9 4.97 9.22 4.14 9.22 4.14 11.28 3.88 11.28 3.88 11 2.59 11 2.6 11.5 1.75 11.5 1.75 22 .02 22 .02 9.5-1.31 9.5-1.32 9.5-2 9.5-2 9-2.55 9-2.55 9-3.4 9-3.41 13.16-6.47 13.16-6.47 13.34-8.93 13.34-8.93 11.57-9.96 11.56-9.97 8.34-9.34 8.33-9.35 7.42-9.91 7.41-9.91 6-10.1 6-10.08 4.36-9 4.34-9 3.1-7.82 3.1-7.83 3.5-11.53 3.5-11.52 2.43-13.18 2.43-13.18 1.15-15.47 1.15-15.47-.63-10.5-.64-10.5-1.04-9.5-1.03-9.5-2.5-12-2.5-12-3.95-12.16-3.94-12.15-4.5-10.26-4.48-10.26-4.64-8.51-4.64-8.52-7.74-11.57-7.75-11.57-9.4-11-9.42-11-9.13-8.37-9.12-8.37-9.82-7.47-9.8-7.47-9.01-5.59-9.01-5.58-14-6.75-14-6.76-11.5-3.93-11.5-3.94-11.04-2.63-11.04-2.63-9.96-1.58-9.96-1.58-22-.36-22-.36zM574 247.5V487h270v-90H691V8H574zm369.9.02L857.33 487h123.2l14.12-41.75 14.13-41.75 88.98-.25 88.99-.26 14.25 42 14.25 42.01h124.52l-5.33-14.75-5.34-14.75-81.3-224.74L1166.5 8l-68 .02h-68zm427.1-.02V487h117l.25-146.58.25-146.57 96.65 146.32 96.66 146.33 59.1.26 59.09.26V8h-118l-.25 147-.25 146.99-96.5-146.94L1488.5 8.1l-58.75-.05L1371 8zm450 0V487h203.5l13.5-1.55 13.5-1.55 12.5-2.5 12.5-2.5 10.21-2.97 10.22-2.97 9.28-3.52 9.29-3.53 12-5.9 12-5.9 12-7.86 12.02-7.86 6.99-5.83 6.99-5.84 6.82-6.6 6.82-6.62 6.88-8.07 6.89-8.07 7.43-11.11 7.42-11.12 5.6-10.95 5.6-10.96 4.04-10.35 4.03-10.35 2.96-10.3 2.96-10.32 1.95-10.2 1.96-10.2 1.3-10.5 1.32-10.5v-46l-1.31-10.5-1.31-10.5-1.96-10.2-1.95-10.2-2.96-10.31-2.96-10.31-3.93-10.09-3.92-10.08-4.67-9.3-4.67-9.3-5.37-8.6-5.37-8.61-5.8-7.66-5.8-7.66-7.85-8.62-7.86-8.62-10.46-8.72-10.46-8.72-10.19-6.83-10.18-6.84-16-7.87-16-7.87-13.5-4.45-13.5-4.46-11.71-2.61-11.72-2.61-9.78-1.44-9.79-1.44-12-1.03-12-1.03-97.75-.01L1821 8zm453 .03v239.54l127.75-.35 127.75-.34 11.5-2.2 11.5-2.19 10-2.92 10-2.93 8.27-3.48 8.26-3.49 7.74-4.53 7.73-4.54 8.47-6.8 8.47-6.8 7.12-8.28 7.12-8.28 4.37-7.64 4.37-7.64 3.32-8.27 3.32-8.28 2.03-9.29 2.03-9.29.8-11.53.8-11.53-.82-10.48-.83-10.49-2.51-9.89-2.51-9.89-5.37-11.1-5.37-11.12-6.01-8-6.02-8-7.89-7.57-7.89-7.58-6.38-4.3-6.38-4.3-8.14-3.82-8.15-3.81-8.22-2.38-8.23-2.37 5.68-1.8 5.67-1.78 9.08-4.65 9.07-4.65 7.64-5.75 7.64-5.75 6.07-6.49 6.06-6.48 3.9-5.76 3.92-5.76 3.5-7 3.49-7 2.1-6.5 2.1-6.5 1.47-8.5 1.48-8.5.62-8.5.62-8.5-1.07-11.16-1.06-11.17-2.39-9.4-2.39-9.42-3.12-7.5-3.13-7.51-5.2-7.92-5.19-7.92-7.8-8.13-7.8-8.12-8.73-6.22-8.73-6.22-10-4.87-10-4.86-9-2.99-9-2.98-12.5-2.5-12.5-2.5-11.5-1.05L2503.5 8H2274zm488.9-.01L2676.33 487h123.2l14.12-41.75 14.13-41.75 88.98-.25 88.99-.26 14.25 42 14.25 42.01h124.52l-5.33-14.75-5.34-14.75-81.3-224.74L2985.5 8l-68 .02h-68zm413.1-.02V487h117l.25-146.58.25-146.57 96.65 146.32 96.66 146.33 59.1.26 59.09.26V8h-118l-.25 147-.25 146.99-96.5-146.94L3293.5 8.1l-58.75-.05L3176 8zm450 0V487h117l.24-104.78.26-104.78 79.57 104.53 79.56 104.53 71.77.26 71.77.25-.33-.9-.34-.92-94.99-120.56-94.99-120.56-.26-.79-.26-.78 92.5-117 92.52-117-68.76-.28-68.76-.28-2.5 2.97-2.5 2.96-77 101.38-77 101.38-.26-104.32L3743 8h-117zM237.99 67.66l-7.13 10.66-4.8 9.59-4.79 9.59-3.74 9.5-3.74 9.5-2.86 11-2.87 11-1.45 9.5-1.45 9.5-.61 9-.62 9 1.03 12.32 1.03 12.33 2.06 10.17 2.06 10.18 4.1 12.34 4.09 12.35 6.61 13.15 6.61 13.16 6.79 10.25 6.78 10.25h1.98l7.05-10.75 7.05-10.75 6.85-14 6.84-14 3.6-10.95 3.58-10.95 1.96-9.55 1.97-9.55 1.18-13.25 1.19-13.25-1.19-13.25-1.18-13.25-2.04-9.9-2.03-9.89-3.04-9.6-3.05-9.61-4.33-10-4.33-10-4.82-8.7-4.83-8.7-5.26-7.55-5.26-7.55h-1.87zM2391 152.01v50.18l44.75-.47 44.75-.46 7-1.62 7-1.61 7.2-3.55 7.2-3.54 4.7-4.7 4.7-4.7 2.78-5.87 2.77-5.86 1.2-7.15 1.21-7.15-.58-8-.58-8.01-1.95-5.6-1.94-5.61-2.47-3.9-2.46-3.89-4.55-4.19-4.55-4.19-5.19-2.62-5.18-2.63-7.66-2.1-7.65-2.11-45.25-.42-45.25-.41zM1938 247v139h56.5l13.5-1.04 13.5-1.02 10-2.03 10-2.03 8.72-2.91 8.73-2.91 6.27-3.14 6.28-3.14 8.44-5.58 8.44-5.58 7.56-7.59 7.56-7.58 5.32-7.74 5.32-7.74 4.37-9.24 4.37-9.23 2.6-9 2.6-9 1.7-9 1.69-9v-24l.02-24-2.26-11.16-2.26-11.17-2.55-7.83-2.56-7.84-3.79-8.08-3.78-8.09-5.33-7.91-5.32-7.92-8.6-8.5-8.59-8.5-6.97-4.63-6.98-4.62-7.29-3.66-7.29-3.65-9.1-3.05-9.1-3.06-10.1-1.95-10.1-1.96-14.5-.94-14.52-.94-26.25-.02L1938 108zm-869-21.76-28.5 85.14-.33.8-.34.82H1156v-1.27l-28.62-84.62-28.62-84.61-.63-.7-.63-.7zm1819 0-28.5 85.14-.33.8-.34.82H2975v-1.27l-28.62-84.62-28.62-84.61-.63-.7-.63-.7zM116.52 187.97l-.6.97 2 12.28 2 12.28 2.5 8.61 2.5 8.62 3.1 7.88 3.12 7.89 4.06 7.5 4.06 7.5 4.56 6.44 4.56 6.45 5.82 6.76 5.83 6.77 8.23 6.91 8.24 6.9 7.5 5.01 7.5 5 9.1 4.56 9.08 4.56 9.91 3.43 9.91 3.43 5.25 1.24 5.25 1.24V475h11.99l.25-72.25.26-72.25 4.5-1.29 4.5-1.29 9.5-3.06 9.5-3.06 11.7-5.95 11.69-5.95 8.8-6.2 8.81-6.2 10.55-10.5 10.54-10.5 6.67-10.04 6.67-10.05 4.44-9.45 4.45-9.46 3.08-9.5 3.08-9.5 1.9-9.5 1.92-9.5.7-6.25.7-6.25h-1.37l-7.84 2-7.85 2-8.08 3.42-8.09 3.4-8.09 4.75-8.08 4.74-8.65 6.71-8.65 6.7-9.59 9.92-9.59 9.92-7 9.47-7 9.47-3.89 6-3.9 6-10.01 20-10.02 20h-4.71l-1.9-3.5-1.9-3.5-5.4-11.5-5.42-11.5-6.43-10.68-6.43-10.67-5.9-8.32-5.91-8.33-14.5-14.59-14.5-14.58-10.04-6.63-10.05-6.63-9.49-4.5-9.49-4.5-9.47-2.53-9.46-2.53h-.2l-.18-.01zM2391 340.05v52.05l52.25-.31 52.25-.31 8.16-2.76 8.16-2.75 6.05-4.04 6.05-4.04 2.91-3.7 2.9-3.69 2.5-5 2.5-5 1.3-5.5 1.32-5.5-.1-9.5-.09-9.5-2.09-6.65-2.09-6.65-4.11-6.16-4.12-6.16-5.14-3.88-5.14-3.88-6.48-3-6.49-3-7.7-1.56-7.72-1.56H2391zM50.47 315.97l-6.03.86L38 318.5l-6.45 1.67-1.71.92-1.72.92 1.56 4.56 1.55 4.56 7.31 14.69 7.31 14.68 2.98 4.64 2.98 4.63 11.37-5.7 11.38-5.7 8.47-2.67 8.47-2.67 7.5-1.68 7.5-1.69h36l35.5 6.15 35.5 6.15 7.83 1.39 7.83 1.39.47-1.23.48-1.23-.3-5.83-.31-5.83-11-2.2-11-2.19-14-3.56-14-3.57-35.5-9.57-35.5-9.57-11-2.05-11-2.06-15-.36-15-.37zM451 335.16l-7.5 2.97-15 4.35-15 4.35-15 3.05-15 3.06-11.5 1.47-11.5 1.48-15 1.2-15 1.2-28-.66-28-.65-5.75-.61-5.75-.62v14.12l1.75.51 1.75.52 10.5 1.98 10.5 1.98 13.5 2.02 13.5 2.02 13.5 1.53 13.5 1.53 20.7 1.06 20.7 1.06 16.72-1.06 16.7-1.05 7.1-1.03 7.08-1.02 2.28-.96 2.29-.95 6-9.25 6-9.26 5.84-11.5 5.85-11.5.69-2.25.69-2.25-.82.1-.82.09zm-295 33.87-13.5.7-8 1.22-8 1.21-10 2.35-10 2.35-9 3.16-9 3.16-9.25 4.5-9.25 4.5v3.04l13.25 13.26 13.25 13.26 2.7 1.7 2.69 1.71 7.37-4.47 7.37-4.48 10.35-5.19 10.35-5.2 10-3.89 10-3.9 10.58-2.94 10.59-2.95 8-1.56 8-1.57 9.5-.98 9.5-.98 8.25-.02L230 387v-11.87l-1.75-.52-1.75-.52-8.5-1.5-8.5-1.52-10-.99-10-.99-10-.38-10-.38zm107.2 18.15.3 4.19 13 3.72 13 3.72 11.5 4.22 11.5 4.23L329 414l16.5 6.76 15.7 6.62 15.7 6.61 1.3-.02 1.3-.03 8.98-7.22 8.98-7.23 9.52-9.26 9.52-9.26-5.5.76-5.5.76-22.5-.09-22.5-.08-17.79-2.68-17.78-2.68-14.72-3.05-14.71-3.05-15.7-3.93-15.71-3.94h-1.2zm-51.41 20.35-9.73 1.33-8.28 1.67-8.27 1.68-11.9 3.9-11.91 3.9-8.44 4.48-8.45 4.5-6.28 5-6.28 4.99-1.64 2.5-1.65 2.52 3.28 2 3.27 2.01 9.5 4.64 9.5 4.64 10.5 3.94 10.5 3.95 13 3.33 13 3.34 10.63 1.57 10.63 1.58H230v-69l-4.25.1-4.25.1zm51.22 34.1v33.65l7.75-.69 7.75-.68 12-2.41 12-2.42 9-2.6 9-2.62 10.25-4 10.25-4.01v-1.41l-5.55-6.7-5.55-6.68-8.2-6.57-8.2-6.57-7.53-4.43-7.53-4.42-7.47-3.1-7.47-3.09-9.36-2.44-9.36-2.44H263z"/></svg>